<?xml version="1.0" encoding="UTF-8" standalone="no"?>
<svg
   xmlns:dc="http://purl.org/dc/elements/1.1/"
   xmlns:cc="http://creativecommons.org/ns#"
   xmlns:rdf="http://www.w3.org/1999/02/22-rdf-syntax-ns#"
   xmlns:svg="http://www.w3.org/2000/svg"
   xmlns="http://www.w3.org/2000/svg"
   xmlns:sodipodi="http://sodipodi.sourceforge.net/DTD/sodipodi-0.dtd"
   xmlns:inkscape="http://www.inkscape.org/namespaces/inkscape"
   id="Слой_1"
   data-name="Слой 1"
   viewBox="0 0 1152.08 365.04"
   version="1.1"
   sodipodi:docname="logo.svg"
   inkscape:version="0.92.3 (2405546, 2018-03-11)">
  <metadata
     id="metadata3777">
    <rdf:RDF>
      <cc:Work
         rdf:about="">
        <dc:format>image/svg+xml</dc:format>
        <dc:type
           rdf:resource="http://purl.org/dc/dcmitype/StillImage" />
        <dc:title>дт лого в кривых</dc:title>
      </cc:Work>
    </rdf:RDF>
  </metadata>
  <sodipodi:namedview
     pagecolor="#ffffff"
     bordercolor="#666666"
     borderopacity="1"
     objecttolerance="10"
     gridtolerance="10"
     guidetolerance="10"
     inkscape:pageopacity="0"
     inkscape:pageshadow="2"
     inkscape:window-width="1920"
     inkscape:window-height="1017"
     id="namedview3775"
     showgrid="false"
     inkscape:zoom="1.5320117"
     inkscape:cx="597.2603"
     inkscape:cy="182.52"
     inkscape:window-x="-8"
     inkscape:window-y="-8"
     inkscape:window-maximized="1"
     inkscape:current-layer="Слой_1" />
  <defs
     id="defs3748">
    <style
       id="style3746">.cls-1{fill:#a1c731}.cls-2{fill:#683e00}</style>
  </defs>
  <title
     id="title3750">дт лого в кривых</title>
  <path
     class="cls-1"
     d="M214.38 330.79a65.61 65.61 0 0 0-8.92-17.89c-23.75-34.06-75.94-38.71-75.94-38.71s-13.69 50.58 10.06 84.64a74.92 74.92 0 0 0 25.7 22.71c11.29 6.16 55.79-29.33 49.1-50.75zm-92.96 57.5c-22.41-4.22-44.67 14-44.67 14s14.09 25.1 36.49 29.32 44.66-14 44.66-14-14.08-25.1-36.48-29.32zm165.64-125.61c-11.24 12.26-8.51 33.06-8.51 33.06s21 .94 32.21-11.31 8.51-33.06 8.51-33.06-20.97-.94-32.21 11.31zm-77.99-.96c-.9 25.35 22.88 46.76 22.88 46.76s25.25-19.68 26.15-45-22.87-46.76-22.87-46.76-25.23 19.66-26.16 45zm-86.2 102.1s-4.84-21.55-20.39-29.58-35.93.51-35.93.51 4.85 21.55 20.39 29.58 35.93-.51 35.93-.51z"
     transform="translate(-66.55 -216.71)"
     id="path3752" />
  <path
     class="cls-2"
     d="M484.59 387.55a6.5 6.5 0 0 1-6.42-5.56c-5.21-35.78-29.95-80.6-60.83-90.61a6.5 6.5 0 1 1 4-12.37c36.11 11.71 63.79 60.6 69.69 101.11a6.51 6.51 0 0 1-6.44 7.44z"
     transform="translate(-66.55 -216.71)"
     id="path3754" />
  <path
     class="cls-2"
     d="M474.56 450.58a7 7 0 0 1-7-6.67 271.81 271.81 0 0 0-15.09-71.07c-17.29-47.11-44.91-74.45-82.1-81.27a7 7 0 0 1 2.53-13.77c41.9 7.68 74 39 92.83 90.54a281.07 281.07 0 0 1 15.82 74.9 7 7 0 0 1-6.66 7.33z"
     transform="translate(-66.55 -216.71)"
     id="path3756" />
  <path
     class="cls-2"
     d="M458.89 509.46a8 8 0 0 1-8-8c0-.49-.23-50.12-17.11-99.48-22-64.24-60.49-97.84-114.51-99.85a8 8 0 0 1 .6-16c60.57 2.25 105.24 40.64 129.18 111 17.64 51.84 17.84 102.18 17.84 104.3a8 8 0 0 1-8 8.03z"
     transform="translate(-66.55 -216.71)"
     id="path3758" />
  <path
     class="cls-2"
     d="M436.26 574.3h-294v-11c0-.33-.15-33.45-.48-80.52-.38-54.1 16.31-100.92 47-131.83 25.55-25.74 60.19-39.34 100.17-39.34 49 0 86.72 17.7 112 52.61 20.88 28.8 32.62 69.67 34 118.18 1.49 54.11 1.42 80.63 1.42 80.89zm-272.11-22h250.1c-.11-12.39-.42-35.34-1.36-69.25-1.88-68.15-24.92-149.4-124-149.4-34.47 0-62.92 11-84.56 32.84-26.54 26.73-41 68-40.62 116.17.23 31.12.37 56.14.44 69.64z"
     transform="translate(-66.55 -216.71)"
     id="path3760" />
  <path
     class="cls-2"
     d="M91.36 255.7h79.08v20.69H91.36z"
     id="path3762" />
  <path
     class="cls-2"
     transform="rotate(90 312.665 304.565)"
     d="M127.25 435.85h220.66v20.69H127.25z"
     id="path3764" />
  <path
     class="cls-2"
     transform="rotate(90 416.57 304.56)"
     d="M231.15 435.85h220.66v20.69H231.15z"
     id="path3766" />
  <path
     class="cls-2"
     d="M173.93 170.98h92.66v20.69h-92.66zm96.14 84.72h79.08v20.69h-79.08z"
     id="path3768" />
  <path
     class="cls-2"
     d="m 469.27233,145.37932 h -27.3 v -19.2 h 77.7 v 19.2 h -27.6 v 81.9 h -22.8 z m 122.7,39.15 h -37.2 v 24 h 41.55 v 18.75 h -64.35 v -101.1 h 62.25 v 18.75 h -39.45 v 21 h 37.2 z m 101.7,-58.35 v 101.1 h -22.8 v -82.35 h -36 v 82.35 h -22.8 v -101.1 z m 96.59,0 v 101.1 h -22.8 v -82.35 h -22.95 v 24 c 0,25.95 -3.3,46 -18.6,55 a 41.38,41.38 0 0 1 -20.1,5 l -2.85,-18.45 a 19,19 0 0 0 11.55,-5.4 c 6.15,-6.3 7.65,-19.35 7.65,-34.65 v -44.25 z m 40.95,0 v 30 c 0,16.2 -0.45,32.25 -1.2,45.75 h 0.45 c 5.4,-11.85 12.15,-25.2 18.15,-36 l 21.77,-39.75 h 23.4 v 101.1 h -21 v -29.85 c 0,-15.6 0.3,-29.4 1.65,-42.6 h -0.45 a 295.27,295.27 0 0 1 -17.25,36 l -20.55,36.45 h -25.97 v -101.1 z m 105.45,0 v 82.35 h 35.4 v -82.35 h 22.80001 v 83.1 l 10.20006,0.6 -1,42.9 h -17.40007 l -1.2,-25.5 h -71.55 v -101.1 z m 103.95007,0 v 35.25 a 83.56,83.56 0 0 1 11.25,-0.9 c 20.85,0 40,10.35 40,33.15 0,9.45 -3.15,16.65 -8.1,21.75 -9.75,9.9 -26.7,12.9 -41.4,12.9 a 173.5,173.5 0 0 1 -24.45,-1.5 v -100.65 z m 0,84.45 a 35.82,35.82 0 0 0 7.65,0.6 c 10,0 19.65,-5.85 19.65,-16.95 0,-11.55 -10.65,-16.2 -19.35,-16.2 a 59.24,59.24 0 0 0 -8,0.6 z m 83.4,-84.45 v 101.1 h -22.8 v -101.1 z"
     id="path3772"
     inkscape:connector-curvature="0"
     style="fill:#683e00" />
  <text
     xml:space="preserve"
     style="font-style:normal;font-weight:normal;font-size:41.19404602px;line-height:1.25;font-family:sans-serif;letter-spacing:0px;word-spacing:0px;fill:#a1c731;fill-opacity:1;stroke:none;stroke-width:1.02985144"
     x="462.20334"
     y="349.87662"
     id="text3781"
     transform="scale(0.97101445,1.0298508)"><tspan
       sodipodi:role="line"
       id="tspan3779"
       x="462.20334"
       y="349.87662"
       style="font-style:normal;font-variant:normal;font-weight:bold;font-stretch:normal;font-size:98.86571503px;font-family:sans-serif;-inkscape-font-specification:'sans-serif Bold';fill:#a1c731;fill-opacity:1;stroke-width:1.02985144">МАГАЗИН №1</tspan></text>
</svg>
